<?xml version="1.0"?>
<svg xmlns="http://www.w3.org/2000/svg" height="512px" viewBox="-105 -41 1331 1331.2499" width="512px"><path d="m495.421875 1196.714844h-.652344c-13.460937 0-24.375 10.910156-24.375 24.375 0 13.46875 10.914063 24.375 24.375 24.375h.652344c13.46875 0 24.375-10.90625 24.375-24.375 0-13.464844-10.90625-24.375-24.375-24.375zm0 0" fill="#192d3d"/><path d="m491.601562 926.792969c25.332032-33.796875 40.351563-75.757813 40.351563-121.152344v-88.734375c0-.082031 0-.167969 0-.246094v-.042968c0-111.621094-90.808594-202.425782-202.421875-202.425782-13.464844 0-24.375 10.90625-24.375 24.375 0 13.472656 10.910156 24.378906 24.375 24.378906 78.554688 0 143.480469 59.257813 152.550781 135.421876-28.382812 3.984374-65.355469-6.847657-89.933593-35.933594-8.214844-9.6875-22.492188-11.476563-32.8125-4.058594-44.734376 32.070312-127.121094 67.589844-182.792969 43.9375 2.238281-23.746094 9.980469-46.675781 22.78125-67.019531 7.164062-11.40625 3.734375-26.453125-7.660157-33.617188-11.390624-7.167969-26.441406-3.734375-33.613281 7.65625-20.246093 32.207031-30.949219 69.300781-30.949219 107.296875v89.011719c0 45.402344 15.019532 87.355469 40.347657 121.152344-106.609375 58.671875-173.886719 170.832031-173.886719 294.296875 0 13.46875 10.910156 24.375 24.375 24.375h379.410156c13.472656 0 24.375-10.90625 24.375-24.375 0-13.464844-10.902344-24.375-24.375-24.375h-43.453125v-162.90625l83.105469 65.214844c7.335938 5.75 17.320312 6.8125 25.707031 2.742187 8.394531-4.082031 13.71875-12.597656 13.71875-21.929687v-105.597657c79.394531 47.207031 131.453125 129.882813 139.28125 222.476563h-50.246093c-13.460938 0-24.375 10.910156-24.375 24.375 0 13.46875 10.914062 24.375 24.375 24.375h75.644531c13.472656 0 24.375-10.90625 24.375-24.375 0-123.464844-67.273438-235.625-173.878907-294.296875zm-121.257812-217.210938c31.460938 27.503907 73.960938 41.429688 112.851562 37.742188v58.316406c0 42.964844-17.746093 81.847656-46.257812 109.761719-.09375.066406-2.992188 2.820312-3.175781 3.03125-27.421875 25.351562-64.042969 40.882812-104.246094 40.882812-40.191406 0-76.796875-15.53125-104.214844-40.871094-.203125-.230468-3.109375-2.976562-3.199219-3.046874-28.515624-27.921876-46.253906-66.792969-46.253906-109.757813v-52.019531c13.675782 3.691406 27.792969 5.332031 42.035156 5.332031 55.757813 0 113.289063-25.007813 152.460938-49.371094zm-138.964844 273.011719c12.246094 6.832031 25.261719 12.425781 38.898438 16.613281l-38.898438 30.527344zm-188.035156 214.121094c7.820312-92.578125 59.890625-175.269532 139.285156-222.476563v105.605469c0 9.324219 5.3125 17.839844 13.710938 21.921875 3.390625 1.644531 7.03125 2.460937 10.664062 2.460937 5.347656 0 10.671875-1.773437 15.046875-5.203124l83.105469-65.214844v162.90625zm345.429688-197.507813c13.636718-4.1875 26.65625-9.78125 38.890624-16.613281v47.140625zm0 0" fill="#192d3d"/><path d="m226.601562 595.945312c4.902344 0 9.855469-1.472656 14.128907-4.527343l.683593-.488281c11.011719-7.738282 13.667969-22.953126 5.921876-33.960938-7.742188-11.015625-22.941407-13.667969-33.964844-5.921875l-.945313.683594c-10.960937 7.816406-13.507812 23.035156-5.6875 34 4.765625 6.664062 12.25 10.214843 19.863281 10.214843zm0 0" fill="#192d3d"/><path d="m267.539062 842.183594h.574219c13.460938 0 24.375-10.917969 24.375-24.378906 0-13.460938-10.914062-24.375-24.375-24.375h-.574219c-13.472656 0-24.375 10.914062-24.375 24.375 0 13.460937 10.902344 24.378906 24.375 24.378906zm0 0" fill="#192d3d"/><path d="m390.9375 842.183594h.578125c13.46875 0 24.375-10.917969 24.375-24.378906 0-13.460938-10.90625-24.375-24.375-24.375h-.578125c-13.46875 0-24.375 10.914062-24.375 24.375 0 13.460937 10.90625 24.378906 24.375 24.378906zm0 0" fill="#192d3d"/><path d="m1106.347656 241.269531c-2.800781-11.742187-13.761718-19.671875-25.792968-18.636719l-29.304688 2.5-11.113281-26.824218 22.480469-18.921875c9.238281-7.785157 11.386718-21.144531 5.066406-31.425781-25.710938-41.769532-61.441406-77.484376-103.308594-103.273438-10.285156-6.347656-23.644531-4.191406-31.421875 5.050781l-18.921875 22.449219-26.84375-11.097656 2.511719-29.273438c1.03125-12.035156-6.898438-23.011718-18.640625-25.800781-23.949219-5.691406-48.515625-8.585937-73.027344-8.597656-.011719 0-.015625 0-.015625 0-24.519531.011719-49.078125 2.90625-73.023437 8.597656-11.746094 2.789063-19.675782 13.769531-18.644532 25.800781l2.507813 29.273438-26.839844 11.117187-18.910156-22.464843c-7.789063-9.246094-21.152344-11.386719-31.441407-5.054688-41.875 25.789062-77.589843 61.503906-103.300781 103.273438-6.332031 10.28125-4.179687 23.640624 5.058594 31.425781l22.476563 18.921875-11.09375 26.824218-29.3125-2.5c-12.027344-1.035156-23 6.894532-25.796876 18.628907-11.355468 47.714843-11.335937 98.226562.042969 146.09375 2.792969 11.746093 13.757813 19.6875 25.796875 18.648437l29.25-2.511718 11.125 26.832031-22.460937 18.90625c-9.246094 7.78125-11.398438 21.152343-5.0625 31.433593 25.792969 41.890626 61.496093 77.617188 103.261719 103.316407 10.285156 6.339843 23.652343 4.183593 31.425781-5.046875l18.941406-22.496094 26.839844 11.113281-2.507813 29.292969c-1.035156 12.023438 6.894532 22.992188 18.625 25.789062 23.882813 5.679688 48.414063 8.566407 72.898438 8.566407h.273437c24.503907 0 49.042969-2.886719 72.914063-8.566407 11.746094-2.789062 19.675781-13.765624 18.640625-25.789062l-2.507813-29.292969 26.824219-11.113281 18.953125 22.496094c7.773438 9.230468 21.132812 11.386718 31.417969 5.0625 41.765625-25.707032 77.46875-61.441406 103.261719-103.332032 6.339843-10.28125 4.179687-23.652343-5.046876-31.417968l-22.464843-18.917969 11.113281-26.824219 29.261719 2.511719c12.046875 1.027344 23.003906-6.914063 25.789062-18.660156 11.386719-47.867188 11.394531-98.378907.046875-146.085938zm-43.433594 114.289063-25.257812-2.167969c-10.605469-.890625-20.554688 5.144531-24.621094 14.949219l-24.765625 59.8125c-4.070312 9.816406-1.304687 21.136718 6.816407 27.976562l19.394531 16.328125c-16.289063 22.304688-36.042969 42.085938-58.300781 58.351563l-16.355469-19.429688c-6.851563-8.117187-18.160157-10.882812-27.976563-6.816406l-59.785156 24.769531c-9.824219 4.0625-15.878906 14.019531-14.964844 24.609375l2.171875 25.292969c-13.613281 2.140625-27.382812 3.207031-41.152343 3.207031-.03125 0-.0625 0-.101563 0-13.808594-.082031-27.601563-1.066406-41.234375-3.207031l2.167969-25.292969c.898437-10.589844-5.148438-20.546875-14.964844-24.609375l-59.78125-24.769531c-9.820313-4.066406-21.128906-1.300781-27.980469 6.816406l-16.351562 19.429688c-22.261719-16.265625-42.011719-36.046875-58.316406-58.351563l19.40625-16.328125c8.113281-6.839844 10.878906-18.160156 6.816406-27.976562l-24.769532-59.8125c-4.070312-9.8125-14.074218-15.847656-24.609374-14.949219l-25.265626 2.167969c-4.253906-27.304688-4.261718-55.257813-.039062-82.492188l25.3125 2.175782c10.597656.890624 20.539062-5.15625 24.605469-14.957032l24.765625-59.785156c4.0625-9.824219 1.296875-21.144531-6.816406-27.988281l-19.417969-16.347657c16.261719-22.25 36.035156-42.011718 58.339843-58.304687l16.335938 19.394531c6.839844 8.125 18.160156 10.882813 27.96875 6.816406l59.816406-24.773437c9.808594-4.066406 15.859375-14.015625 14.949219-24.601563l-2.171875-25.292968c13.65625-2.136719 27.460938-3.21875 41.238281-3.230469 13.78125.011719 27.574219 1.09375 41.246094 3.230469l-2.171875 25.292968c-.910156 10.585938 5.140625 20.535157 14.957031 24.601563l59.796875 24.773437c9.824219 4.066407 21.144532 1.308594 27.976563-6.816406l16.339843-19.394531c22.304688 16.296875 42.078126 36.054687 58.339844 58.304687l-19.417968 16.351563c-8.121094 6.839844-10.886719 18.160156-6.816407 27.984375l24.765625 59.785156c4.066406 9.8125 14.003906 15.847656 24.601563 14.957032l25.3125-2.175782c4.226562 27.234375 4.207031 55.1875-.035157 82.492188zm0 0" fill="#192d3d"/><path d="m798.019531 168.054688c-80.636719 0-146.253906 65.605468-146.253906 146.253906 0 80.632812 65.617187 146.253906 146.253906 146.253906 80.65625 0 146.257813-65.621094 146.257813-146.253906 0-80.648438-65.601563-146.253906-146.257813-146.253906zm0 243.757812c-53.753906 0-97.5-43.738281-97.5-97.503906s43.746094-97.503906 97.5-97.503906c53.765625 0 97.507813 43.738281 97.507813 97.503906s-43.742188 97.503906-97.507813 97.503906zm0 0" fill="#192d3d"/></svg>
